<svg width="40" height="40" viewBox="0 0 40 40" fill="none" xmlns="http://www.w3.org/2000/svg">
<rect width="40" height="40" rx="10" fill="#FAA9E4"/>
<path d="M19.9998 14.1091C16.7463 14.1091 14.1089 16.7466 14.1089 20V20.6546H12.7998V20C12.7998 16.0236 16.0234 12.8 19.9998 12.8C22.4357 12.8 24.5882 14.0097 25.8907 15.8595V13.4546H27.1998V18.0364H22.618V16.7273H24.8989C23.8416 15.1479 22.0415 14.1091 19.9998 14.1091Z" fill="#96006D"/>
<path d="M27.1998 19.3455V20C27.1998 23.9765 23.9762 27.2 19.9998 27.2C17.5639 27.2 15.4115 25.9904 14.1089 24.1406V26.5455H12.7998V21.9637H17.3816V23.2728H15.1007C16.1579 24.8522 17.9581 25.891 19.9998 25.891C23.2532 25.891 25.8907 23.2535 25.8907 20V19.3455H27.1998Z" fill="#96006D"/>
</svg>
