<svg width="40" height="40" viewBox="0 0 40 40" fill="none" xmlns="http://www.w3.org/2000/svg">
<rect width="40" height="40" rx="10" fill="#FFA666"/>
<path fill-rule="evenodd" clip-rule="evenodd" d="M17.0319 22.16C16.2366 22.16 15.5919 21.5153 15.5919 20.72C15.5919 19.9248 16.2366 19.28 17.0319 19.28C17.1589 19.28 17.282 19.2965 17.3993 19.3273L19.2354 17.4912C19.2025 17.3702 19.1849 17.243 19.1849 17.1116C19.1849 16.3163 19.8296 15.6716 20.6249 15.6716C21.4202 15.6716 22.0649 16.3163 22.0649 17.1116C22.0649 17.5017 21.9098 17.8555 21.658 18.1148L22.4128 20.7567C23.043 20.9101 23.5109 21.4784 23.5109 22.1558C23.5109 22.9511 22.8662 23.5958 22.0709 23.5958C21.3983 23.5958 20.8335 23.1348 20.6751 22.5115L18.0319 21.7563C17.7728 22.0063 17.4203 22.16 17.0319 22.16ZM18.4297 20.3723L21.0165 21.1114L20.2728 18.5082C20.268 18.507 20.2632 18.5058 20.2585 18.5046L18.4216 20.3414C18.4244 20.3517 18.4271 20.362 18.4297 20.3723Z" fill="#9B4100"/>
<path fill-rule="evenodd" clip-rule="evenodd" d="M11.8848 20.0001L15.8848 12.8H23.9321L27.9321 20.0001L23.9321 27.2H15.8848L11.8848 20.0001ZM13.5321 20.0001L16.7321 25.76H23.0848L26.2848 20.0001L23.0848 14.24H16.7321L13.5321 20.0001Z" fill="#9B4100"/>
</svg>
