<svg width="40" height="40" viewBox="0 0 40 40" fill="none" xmlns="http://www.w3.org/2000/svg">
<rect width="40" height="40" rx="10" fill="#FFD978"/>
<path d="M13.7775 12.8L17.9257 16.9482V14.4691H19.3084V19.3087H14.4689V17.926H16.948L12.7998 13.7778L13.7775 12.8Z" fill="#7C5900"/>
<path d="M27.1998 13.7778L23.0516 17.926L25.5307 17.926V19.3087L20.6912 19.3087V14.4691H22.0739V16.9482L26.2221 12.8L27.1998 13.7778Z" fill="#7C5900"/>
<path d="M14.4689 20.6914H19.3084V25.531H17.9257V23.0519L13.7775 27.2L12.7998 26.2223L16.948 22.0741H14.4689V20.6914Z" fill="#7C5900"/>
<path d="M20.6912 20.6914H25.5307V22.0741H23.0516L27.1998 26.2223L26.2221 27.2L22.0739 23.0519V25.531H20.6912V20.6914Z" fill="#7C5900"/>
</svg>
